<svg width="24" height="24" viewBox="0 0 24 24" fill="none" xmlns="http://www.w3.org/2000/svg" preserveAspectRatio="xMinYMid meet"><path d="M7.922 15.133a1.417 1.417 0 1 1-2.834 0 1.417 1.417 0 0 1 2.834 0zm7.428-7.771a1.417 1.417 0 1 1-2.834 0 1.417 1.417 0 0 1 2.834 0zm3.136 7.285a1.417 1.417 0 1 1-2.834 0 1.417 1.417 0 0 1 2.834 0z" fill="#212529"/><path d="M13.933 7.63l-6.914 7.017" fill="none" stroke="#212529" stroke-dasharray="3 1" stroke-dashoffset="1"/><path d="M17.069 14.704l-3.136-7.073" fill="none" stroke="#212529" stroke-dasharray="3 1"/><path d="M3.5 3.498l5.41 3.864m5.409-3.864l-5.41 3.864m11.593 0l-6.183-3.864M20.502 20.5V7.362m-6.183 9.66l6.183 3.478m-11.592 0l5.41-3.478M3.5 16.636L8.91 20.5M3.5 3.498v13.138" fill="none" stroke="#212529" stroke-linecap="round" stroke-linejoin="round"/></svg>
