<svg enable-background="new 0 0 256 256" height="256" viewBox="0 0 256 256" width="256" xmlns="http://www.w3.org/2000/svg"><path d="m50.753 1.286c.867-.022 1.734-.043 2.628-.065 1.423-.028 1.423-.028 2.875-.056 1.002-.022 2.004-.045 3.037-.068 9.265-.197 18.531-.312 27.798-.403 6.22-.062 12.438-.15 18.656-.304 6.021-.147 12.039-.226 18.062-.256 2.286-.023 4.571-.071 6.856-.144 19.735-.602 19.735-.602 27.075 6.263 2.283 2.445 4.402 4.98 6.453 7.623 1.598 1.988 3.369 3.575 5.35 5.175 6.091 5.178 11.612 10.984 17.249 16.646 1.276 1.278 2.554 2.557 3.831 3.835 3.343 3.347 6.682 6.696 10.021 10.045 3.395 3.405 6.791 6.807 10.188 10.209 5.485 5.495 10.971 10.991 16.452 16.49 2.3 2.307 4.579 4.538 7.055 6.661 2.786 3.31 2.688 5.117 2.473 9.377-.045 1.161-.091 2.323-.138 3.52-.059.88-.116 1.761-.176 2.668-9.867.093-19.733.164-29.601.207-4.584.021-9.166.049-13.748.095-4.429.044-8.856.067-13.284.078-1.685.007-3.367.022-5.05.043-11.524.143-21.877-.344-30.782-8.575-4.874-5.866-7.665-12.947-7.648-20.513 0-1.741 0-1.741 0-3.518.007-1.253.011-2.507.017-3.798.002-1.283.003-2.566.004-3.888.004-3.408.014-6.816.024-10.224.011-3.479.015-6.958.021-10.438.011-6.824.027-13.647.049-20.471-1.045.067-2.09.134-3.166.203-11.075.656-22.141.922-33.232 1.043-.725.008-1.449.017-2.196.025-6.809.078-13.617.148-20.426.205-3.765.032-7.528.073-11.293.121-1.418.016-2.837.028-4.255.037-1.972.012-3.945.038-5.917.063-1.675.015-1.675.015-3.383.031-3.349.291-6.035.974-9.132 2.272-2.955 5.065-3.117 11.256-3.205 17.005-.02 1.161-.04 2.322-.061 3.518-.017 1.238-.034 2.475-.051 3.75-.021 1.279-.042 2.558-.063 3.875-.054 3.383-.104 6.766-.153 10.15-.05 3.459-.106 6.918-.161 10.377-.106 6.775-.207 13.55-.306 20.325-5.28 0-10.56 0-16 0-.091-8.433-.164-16.865-.207-25.298-.021-3.917-.049-7.833-.095-11.75-.044-3.787-.067-7.573-.078-11.36-.007-1.438-.022-2.875-.043-4.312-.158-10.864.909-20.452 8.575-28.745 5.28-4.386 12.217-7.592 19.101-7.749zm101.747 26.214c-.05 5.55-.086 11.1-.109 16.65-.011 1.885-.022 3.771-.041 5.656-.024 2.721-.035 5.441-.045 8.162-.01.833-.021 1.667-.031 2.526 0 6.483.384 12.51 4.353 17.88 6.138 4.536 13.285 4.409 20.625 4.32.897-.003 1.797-.006 2.724-.009 2.844-.011 5.686-.036 8.526-.062 1.938-.01 3.878-.019 5.815-.027 4.729-.021 9.457-.057 14.185-.098-.961-1.126-1.923-2.252-2.885-3.377-.804-.94-.804-.94-1.623-1.899-3.743-4.325-7.864-8.221-12.207-11.935-4.349-3.789-8.416-7.81-12.47-11.91-.74-.745-1.481-1.489-2.244-2.257-2.34-2.351-4.676-4.705-7.01-7.06-3.1-3.126-6.203-6.25-9.309-9.371-.713-.722-1.427-1.443-2.162-2.187-.654-.658-1.31-1.316-1.984-1.995-.576-.583-1.154-1.166-1.75-1.766-1.174-1.354-1.174-1.354-2.358-1.241z"/><path d="m220.5 198.5h16c.092 4.803.172 9.602.22 14.404.021 1.629.048 3.259.082 4.888.233 11.158.318 20.817-7.552 29.583-5.869 5.352-12.542 8.254-20.482 8.245-.947.001-1.896.003-2.873.005-1.549-.006-1.549-.006-3.129-.012-1.094 0-2.188 0-3.312.001-3.615-.001-7.229-.009-10.844-.017-2.506-.003-5.012-.005-7.517-.005-5.922-.004-11.844-.012-17.765-.021-7.403-.014-14.809-.019-22.212-.023-13.205-.011-26.412-.027-39.617-.049 0-5.28 0-10.561 0-16 1.283-.008 2.566-.016 3.888-.023 12.108-.078 24.219-.166 36.325-.264 6.226-.051 12.449-.097 18.675-.135 6.012-.037 12.021-.084 18.031-.137 2.29-.019 4.579-.033 6.869-.045 3.215-.018 6.429-.047 9.645-.078.938-.002 1.879-.004 2.849-.006 10.364-.011 10.364-.011 19.22-4.562 2.607-4.782 2.638-9.879 2.816-15.242.041-1.199.084-2.396.127-3.633.039-1.236.078-2.475.119-3.75.043-1.261.086-2.521.131-3.82.105-3.101.206-6.202.306-9.304z"/><path d="m15.349 168.555c.789-.011 1.578-.02 2.391-.029 2.594-.021 5.185-.008 7.779.011 1.811-.003 3.622-.009 5.432-.017 3.791-.008 7.579.004 11.368.029 4.849.03 9.696.013 14.545-.019 3.738-.019 7.476-.014 11.214.001 1.787.004 3.574-.001 5.361-.015 2.502-.013 5.002.009 7.504.038.733-.012 1.466-.021 2.222-.033 4.862.106 7.398 1.354 10.962 4.656 2.454 2.96 2.18 6.091 2.21 9.762.006.573.012 1.146.018 1.736.018 1.895.028 3.79.037 5.685.004.648.007 1.297.011 1.965.019 3.433.031 6.864.039 10.297.01 3.538.041 7.076.076 10.614.023 2.727.031 5.453.034 8.18.004 1.304.015 2.609.031 3.911.021 1.829.021 3.657.014 5.485.006 1.039.011 2.078.017 3.148-.532 3.539-1.772 5.445-3.992 8.224-3.504 2.335-6.508 2.041-10.576 2.038-1.213.008-1.213.008-2.451.017-2.679.019-5.357.021-8.036.022-1.86.006-3.721.013-5.58.018-3.902.013-7.804.016-11.706.015-5.001-.001-10.001.023-15.001.055-3.842.02-7.686.023-11.529.022-1.843.002-3.687.01-5.53.023-2.578.018-5.156.013-7.735.002-.762.01-1.523.019-2.309.029-3.604-.039-5.383-.177-8.493-2.164-4.29-4.463-4.558-9.724-4.583-15.721-.005-.953-.012-1.907-.017-2.889 0-1.019-.001-2.035-.002-3.084-.002-1.06-.006-2.119-.008-3.211-.005-2.237-.007-4.475-.007-6.713-.002-3.407-.018-6.815-.035-10.224-.002-2.179-.004-4.359-.005-6.538-.006-1.013-.013-2.023-.019-3.066.039-13.783.039-13.783 3.203-17.732 4.282-3.906 7.442-4.613 13.146-4.528zm46.325 29.894c0-6.586-5.311-13.604-14.648-13.604-8.33 0-13.649 5.298-13.649 13.604 0 2.287 0 5.298 1.729 7.589.719 1.717 4.018 2.291 4.018 4.73 0 1.722-7.042 13.603-7.042 15.032 0 2.292.718 1.717.718 2.292h30.014l.715-2.292c0-1.718-7.031-13.605-7.031-15.032-.135-3.297 5.176-7.302 5.176-12.319z"/><path d="m84.728 149.563c-.008 1.122-.016 2.243-.024 3.398-.021 2.759-.053 5.518-.087 8.276-4.697 0-11.172 0-16.011 0-.05-1.689-.05-1.689-.101-3.415-.057-1.512-.117-3.023-.177-4.534-.03-1.108-.03-1.108-.061-2.24-.258-6.021-1.083-11.807-4.724-16.769-5.038-4.228-10.039-6.954-16.769-6.789-6.181.919-11.99 3.672-15.896 8.668-2.385 3.991-3.255 7.648-3.471 12.221-.038.75-.075 1.501-.113 2.275-.035.777-.071 1.554-.106 2.354-.038.791-.076 1.58-.116 2.394-.094 1.945-.184 3.89-.273 5.835-4.697 0-9.393 0-14.232 0-.096-3.836-.167-7.67-.222-11.508-.031-1.078-.06-2.157-.091-3.269-.117-10.851 3.229-17.994 10.59-25.836 10.771-10.101 28.354-12.756 41.599-6.244 8.702 5.442 16.793 8.644 19.062 21.652"/><path d="m129.867 197.982c.734-.008 1.471-.015 2.229-.021 2.428-.018 4.854-.006 7.279.008 1.688-.003 3.377-.007 5.066-.012 3.537-.006 7.074.003 10.61.021 4.533.022 9.065.01 13.599-.015 3.486-.016 6.974-.011 10.459 0 1.672.002 3.344-.001 5.016-.01 2.336-.011 4.672.005 7.008.026.689-.008 1.38-.016 2.092-.023 3.322.059 5.029.354 7.705 2.391 1.57 2.152 1.57 2.152 2.07 5.09-.633 3.873-1.684 5.34-4.5 8.062-2.666.507-4.703.686-7.367.646-1.104.014-1.104.014-2.229.026-2.428.021-4.854.009-7.279-.01-1.688.004-3.377.008-5.066.015-3.537.008-7.074-.003-10.61-.025-4.533-.029-9.065-.014-13.599.018-3.486.018-6.974.012-10.459-.001-1.672-.003-3.344.001-5.016.013-2.336.014-4.671-.007-7.008-.035-.689.012-1.38.021-2.092.031-3.648-.08-5.042-.451-7.705-3.027-1.921-3.241-2.202-4.94-1.571-8.649 3.179-4.355 6.297-4.578 11.368-4.519z"/><path d="m75.688 73.969c1.642-.006 1.642-.006 3.317-.012 2.313-.002 4.626.005 6.939.021 3.543.021 7.083 0 10.626-.025 2.248.003 4.495.008 6.742.016 1.061-.008 2.121-.016 3.214-.024 7.307.093 7.307.093 10.642 2.405 1.849 2.984 1.896 4.698 1.332 8.15-1.332 2.65-1.332 2.65-4 5-3.721.77-7.399.7-11.188.664-1.095.005-2.189.01-3.317.015-2.313.003-4.626-.006-6.939-.027-3.543-.027-7.083 0-10.626.032-2.248-.003-4.495-.01-6.742-.02-1.061.01-2.121.021-3.214.031-7.317-.117-7.317-.117-10.642-3.045-1.628-3.239-1.941-5.072-1.332-8.65 3.488-5.631 9.276-4.576 15.188-4.531z"/><path d="m75.688 41.969c1.642-.006 1.642-.006 3.317-.012 2.313-.002 4.626.005 6.939.021 3.543.021 7.083 0 10.626-.025 2.248.003 4.495.008 6.742.016 1.061-.008 2.121-.016 3.214-.024 7.307.093 7.307.093 10.642 2.405 1.849 2.984 1.896 4.698 1.332 8.15-1.332 2.65-1.332 2.65-4 5-3.721.77-7.399.7-11.188.664-1.095.005-2.189.01-3.317.015-2.313.003-4.626-.006-6.939-.027-3.543-.027-7.083 0-10.626.032-2.248-.003-4.495-.01-6.742-.02-1.061.01-2.121.021-3.214.031-7.317-.117-7.317-.117-10.642-3.045-1.628-3.239-1.941-5.072-1.332-8.65 3.488-5.631 9.276-4.576 15.188-4.531z"/><path d="m119.707 120.842c1.714-.02 1.714-.02 3.462-.039 1.258.009 2.517.018 3.775.027 1.331-.006 2.661-.015 3.993-.023 3.609-.021 7.218-.013 10.828.001 3.777.012 7.557.001 11.336-.006 6.346-.009 12.691.002 19.037.024 7.334.024 14.668.017 22.002-.009 6.299-.02 12.598-.023 18.896-.012 3.762.007 7.523.008 11.285-.007 3.537-.013 7.072-.003 10.608.022 1.298.007 2.596.004 3.892-.005 1.771-.012 3.545.005 5.316.026 1.486.002 1.486.002 3.004.005 3.562.766 4.948 2.349 7.224 5.13.579 2.453.579 2.453.589 5.129.015 1.006.029 2.013.045 3.051-.011 1.079-.02 2.157-.028 3.269.005 1.115.009 2.229.015 3.379.001 2.357-.007 4.713-.024 7.068-.025 3.607-.001 7.211.027 10.816-.003 2.291-.009 4.58-.018 6.87.009 1.079.02 2.156.028 3.268-.022 1.51-.022 1.51-.045 3.051-.003.883-.007 1.766-.012 2.675-.814 3.458-2.428 4.76-5.134 7.011-2.668.573-2.668.573-5.673.578-1.141.013-2.283.026-3.46.039-1.259-.009-2.519-.018-3.776-.028-1.332.008-2.662.016-3.993.025-3.609.02-7.218.012-10.827-.002-3.778-.012-7.559-.001-11.337.006-6.346.008-12.691-.003-19.036-.023-7.334-.024-14.669-.018-22.004.008-6.298.02-12.598.023-18.896.012-3.763-.007-7.523-.008-11.285.008-3.536.013-7.071.004-10.607-.021-1.298-.006-2.595-.005-3.893.005-1.771.013-3.544-.006-5.314-.025-.992-.002-1.983-.004-3.004-.006-3.563-.765-4.949-2.348-7.224-5.129-.579-2.454-.579-2.454-.59-5.129-.015-1.006-.029-2.013-.043-3.051.009-1.079.019-2.157.028-3.268-.005-1.117-.009-2.231-.014-3.38-.003-2.356.005-4.713.024-7.069.024-3.605 0-7.21-.029-10.815.003-2.29.009-4.579.019-6.869-.009-1.08-.02-2.157-.028-3.269.015-1.007.029-2.013.043-3.051.003-.883.008-1.767.011-2.676 1.343-5.699 5.333-7.582 10.807-7.591zm2.529 10.601v41.006h9.112c0-4.812 0-9.623 0-14.58 2.48.057 2.48.057 5.012.114 6.069-.021 10.926-.097 15.833-4.044 3-3.796 3.963-6.293 3.645-11.106-.537-3.793-1.6-5.978-4.442-8.657-7.7-5.131-22.062-2.733-29.16-2.733zm42.828 0v41.006c18.138.002 24.83.569 32.053-4.634 5.763-5.39 6.902-13.591 5.307-20.881-1.139-6.265-3.174-8.497-7.289-11.847-9.365-5.578-19.114-3.644-30.071-3.644zm47.384 0v41.006h9.112c0-5.412 0-10.826 0-16.402h18.225c0-2.406 0-4.812 0-7.29-6.014 0-12.029 0-18.225 0 0-3.308 0-6.615 0-10.023h20.958c0-2.406 0-4.812 0-7.29-9.923-.001-19.846-.001-30.07-.001z"/><path d="m174.176 138.733c11.732 0 14.238 0 17.314 2.733 3.758 4.215 3.221 9.454 2.733 14.58-.844 3.056-1.983 5.599-4.215 7.916-2.278 1.443-5.86 1.49-9.226 1.367-2.181-.057-4.361-.112-6.607-.171.001-8.72.001-17.44.001-26.425z"/><path d="m131.349 138.733c2.05-.098 4.101-.169 6.15-.228 1.142-.043 2.284-.085 3.46-.129 3.146.356 3.146.356 5.386 1.986 1.405 2.015 1.405 2.015 1.349 5.318-.854 3.075-.854 3.075-3.588 4.897-3.058.179-3.058.179-6.549.114-1.16-.016-2.319-.033-3.514-.05-1.334-.032-1.334-.032-2.694-.064 0-3.907 0-7.816 0-11.844z"/></svg>