<svg enable-background="new 0 0 64 64" height="64" viewBox="0 0 64 64" width="64" xmlns="http://www.w3.org/2000/svg"><path d="m4.836.489 27.26 4.083 27.068-4.083-4.484 57.316-22.583 5.706-23.785-5.706z" fill="#e5e7e8" stroke="#ccc"/><path d="m32.096 10.746 21.83-3.916-2.909 46.988-18.92 4.699v-47.771z" fill="#fff"/><path d="m3.756 22.432h55.408v19.136h-55.408z" fill="#ff2600"/><g fill="#fff" transform="matrix(.42778543 0 0 .42778543 58.617711 9.673706)"><path d="m-120.531 34.594v35.188h6.531v-5.938-5.97h8.876l4.156-3.719v-7.718-7.719l-4.219-4.124zm6.531 6.812h6.218v10.219h-6.218z"/><path d="m-71.934 34.594v35.188h16.125l3.751-3.625v-27.969l-3.968-3.593h-15.908zm6.813 6.812h6.812v21.564h-6.812z"/><path d="m-22.615 34.597h16.455v6.81c-3.404 0-6.807 0-10.213 0v7.416c2.931.111 5.865-.111 8.796 0v3.366 3.376c-2.931.11-5.865-.112-8.796 0v7.148 7.068c-2.082 0-4.162 0-6.241 0-.001-11.728-.001-23.457-.001-35.184z"/></g></svg>