<svg id="Capa_1" enable-background="new 0 0 512 512" height="512" viewBox="0 0 512 512" width="512" xmlns="http://www.w3.org/2000/svg"><path d="m141 196c0 5.523 4.477 10 10 10h120c5.523 0 10-4.477 10-10s-4.477-10-10-10h-120c-5.523 0-10 4.477-10 10z"/><path d="m151 266h120c5.523 0 10-4.477 10-10s-4.477-10-10-10h-120c-5.523 0-10 4.477-10 10s4.477 10 10 10z"/><path d="m151 326h120c5.523 0 10-4.477 10-10s-4.477-10-10-10h-120c-5.523 0-10 4.477-10 10s4.477 10 10 10z"/><path d="m151 386h120c5.523 0 10-4.477 10-10s-4.477-10-10-10h-120c-5.523 0-10 4.477-10 10s4.477 10 10 10z"/><path d="m231 436c0 5.523 4.477 10 10 10h120c5.523 0 10-4.477 10-10s-4.477-10-10-10h-120c-5.523 0-10 4.477-10 10z"/><path d="m331 386h30c5.523 0 10-4.477 10-10s-4.477-10-10-10h-30c-5.523 0-10 4.477-10 10s4.477 10 10 10z"/><path d="m331 326h30c5.523 0 10-4.477 10-10s-4.477-10-10-10h-30c-5.523 0-10 4.477-10 10s4.477 10 10 10z"/><path d="m331 266h30c5.523 0 10-4.477 10-10s-4.477-10-10-10h-30c-5.523 0-10 4.477-10 10s4.477 10 10 10z"/><path d="m331 206h30c5.523 0 10-4.477 10-10s-4.477-10-10-10h-30c-5.523 0-10 4.477-10 10s4.477 10 10 10z"/><path d="m211 66c-5.523 0-10 4.477-10 10v20h-20c-5.523 0-10 4.477-10 10s4.477 10 10 10h20v20c0 5.523 4.477 10 10 10s10-4.477 10-10v-20h20c5.523 0 10-4.477 10-10s-4.477-10-10-10h-20v-20c0-5.523-4.477-10-10-10z"/><circle cx="251" cy="502" r="10"/><path d="m91 512h115c5.523 0 10-4.477 10-10s-4.477-10-10-10h-105v-472h220v80c0 5.523 4.477 10 10 10h80v382h-115c-5.523 0-10 4.477-10 10s4.477 10 10 10h125c5.523 0 10-4.477 10-10v-402c0-2.681-1.088-5.234-2.929-7.071l-90-90c-1.804-1.801-4.377-2.929-7.071-2.929h-240c-5.523 0-10 4.477-10 10v492c0 5.523 4.477 10 10 10zm250-477.858 55.858 55.858h-55.858z"/></svg>